<svg xmlns="http://www.w3.org/2000/svg" version="1.1" xmlns:xlink="http://www.w3.org/1999/xlink" xmlns:svgjs="http://svgjs.com/svgjs" width="1440" height="560" preserveAspectRatio="none" viewBox="0 0 1440 560"><g mask="url(&quot;#SvgjsMask1325&quot;)" fill="none"><rect width="1440" height="560" x="0" y="0" fill="url(#SvgjsLinearGradient1326)"></rect><path d="M305 207L133 35" stroke-width="8" stroke="url(#SvgjsLinearGradient1327)" stroke-linecap="round" class="BottomRight"></path><path d="M895 161L676 -58" stroke-width="8" stroke="url(#SvgjsLinearGradient1327)" stroke-linecap="round" class="BottomRight"></path><path d="M682 488L1062 868" stroke-width="6" stroke="url(#SvgjsLinearGradient1327)" stroke-linecap="round" class="BottomRight"></path><path d="M821 12L462 -347" stroke-width="8" stroke="url(#SvgjsLinearGradient1327)" stroke-linecap="round" class="BottomRight"></path><path d="M808 76L470 -262" stroke-width="6" stroke="url(#SvgjsLinearGradient1328)" stroke-linecap="round" class="TopLeft"></path><path d="M777 150L1123 496" stroke-width="10" stroke="url(#SvgjsLinearGradient1328)" stroke-linecap="round" class="TopLeft"></path><path d="M1087 258L1253 424" stroke-width="6" stroke="url(#SvgjsLinearGradient1328)" stroke-linecap="round" class="TopLeft"></path><path d="M691 250L850 409" stroke-width="10" stroke="url(#SvgjsLinearGradient1327)" stroke-linecap="round" class="BottomRight"></path><path d="M1196 296L803 -97" stroke-width="6" stroke="url(#SvgjsLinearGradient1328)" stroke-linecap="round" class="TopLeft"></path><path d="M146 512L423 789" stroke-width="10" stroke="url(#SvgjsLinearGradient1328)" stroke-linecap="round" class="TopLeft"></path><path d="M565 247L193 -125" stroke-width="10" stroke="url(#SvgjsLinearGradient1327)" stroke-linecap="round" class="BottomRight"></path><path d="M1074 286L1246 458" stroke-width="6" stroke="url(#SvgjsLinearGradient1328)" stroke-linecap="round" class="TopLeft"></path><path d="M1209 160L1007 -42" stroke-width="10" stroke="url(#SvgjsLinearGradient1327)" stroke-linecap="round" class="BottomRight"></path><path d="M1389 299L1534 444" stroke-width="10" stroke="url(#SvgjsLinearGradient1327)" stroke-linecap="round" class="BottomRight"></path><path d="M1176 354L906 84" stroke-width="6" stroke="url(#SvgjsLinearGradient1327)" stroke-linecap="round" class="BottomRight"></path><path d="M455 174L188 -93" stroke-width="6" stroke="url(#SvgjsLinearGradient1328)" stroke-linecap="round" class="TopLeft"></path><path d="M567 96L418 -53" stroke-width="6" stroke="url(#SvgjsLinearGradient1328)" stroke-linecap="round" class="TopLeft"></path><path d="M1123 244L1297 418" stroke-width="10" stroke="url(#SvgjsLinearGradient1327)" stroke-linecap="round" class="BottomRight"></path><path d="M675 192L266 -217" stroke-width="6" stroke="url(#SvgjsLinearGradient1327)" stroke-linecap="round" class="BottomRight"></path><path d="M1055 50L736 -269" stroke-width="8" stroke="url(#SvgjsLinearGradient1328)" stroke-linecap="round" class="TopLeft"></path><path d="M1392 479L1212 299" stroke-width="10" stroke="url(#SvgjsLinearGradient1328)" stroke-linecap="round" class="TopLeft"></path><path d="M420 220L818 618" stroke-width="8" stroke="url(#SvgjsLinearGradient1327)" stroke-linecap="round" class="BottomRight"></path><path d="M1283 449L1536 702" stroke-width="6" stroke="url(#SvgjsLinearGradient1328)" stroke-linecap="round" class="TopLeft"></path><path d="M242 180L546 484" stroke-width="6" stroke="url(#SvgjsLinearGradient1327)" stroke-linecap="round" class="BottomRight"></path><path d="M939 138L1322 521" stroke-width="8" stroke="url(#SvgjsLinearGradient1327)" stroke-linecap="round" class="BottomRight"></path><path d="M400 202L577 379" stroke-width="8" stroke="url(#SvgjsLinearGradient1328)" stroke-linecap="round" class="TopLeft"></path><path d="M559 390L959 790" stroke-width="8" stroke="url(#SvgjsLinearGradient1328)" stroke-linecap="round" class="TopLeft"></path><path d="M1275 183L995 -97" stroke-width="10" stroke="url(#SvgjsLinearGradient1328)" stroke-linecap="round" class="TopLeft"></path><path d="M1174 280L911 17" stroke-width="10" stroke="url(#SvgjsLinearGradient1327)" stroke-linecap="round" class="BottomRight"></path><path d="M1258 467L1494 703" stroke-width="10" stroke="url(#SvgjsLinearGradient1328)" stroke-linecap="round" class="TopLeft"></path><path d="M615 554L764 703" stroke-width="8" stroke="url(#SvgjsLinearGradient1327)" stroke-linecap="round" class="BottomRight"></path><path d="M527 146L168 -213" stroke-width="6" stroke="url(#SvgjsLinearGradient1327)" stroke-linecap="round" class="BottomRight"></path><path d="M1213 229L1498 514" stroke-width="8" stroke="url(#SvgjsLinearGradient1327)" stroke-linecap="round" class="BottomRight"></path><path d="M186 329L-150 -7" stroke-width="6" stroke="url(#SvgjsLinearGradient1328)" stroke-linecap="round" class="TopLeft"></path><path d="M600 278L987 665" stroke-width="6" stroke="url(#SvgjsLinearGradient1328)" stroke-linecap="round" class="TopLeft"></path><path d="M88 212L259 383" stroke-width="8" stroke="url(#SvgjsLinearGradient1328)" stroke-linecap="round" class="TopLeft"></path><path d="M910 240L711 41" stroke-width="8" stroke="url(#SvgjsLinearGradient1328)" stroke-linecap="round" class="TopLeft"></path><path d="M986 25L794 -167" stroke-width="10" stroke="url(#SvgjsLinearGradient1328)" stroke-linecap="round" class="TopLeft"></path><path d="M824 550L636 362" stroke-width="6" stroke="url(#SvgjsLinearGradient1328)" stroke-linecap="round" class="TopLeft"></path></g><defs><mask id="SvgjsMask1325"><rect width="1440" height="560" fill="#ffffff"></rect></mask><linearGradient x1="15.28%" y1="-39.29%" x2="84.72%" y2="139.29%" gradientUnits="userSpaceOnUse" id="SvgjsLinearGradient1326"><stop stop-color="#0e2a47" offset="0"></stop><stop stop-color="rgba(0, 61, 140, 1)" offset="1"></stop></linearGradient><linearGradient x1="0%" y1="0%" x2="100%" y2="100%" id="SvgjsLinearGradient1327"><stop stop-color="rgba(28, 83, 142, 0)" offset="0"></stop><stop stop-color="#1c538e" offset="1"></stop></linearGradient><linearGradient x1="100%" y1="100%" x2="0%" y2="0%" id="SvgjsLinearGradient1328"><stop stop-color="rgba(28, 83, 142, 0)" offset="0"></stop><stop stop-color="#1c538e" offset="1"></stop></linearGradient></defs></svg>